<svg xmlns="http://www.w3.org/2000/svg" width="1440" height="900"><path d="M747,628L594,791L948,824Z" fill="#319ec1" stroke="#319ec1" stroke-width="1.51"/><path d="M594,791L698,1174L948,824Z" fill="#358db9" stroke="#358db9" stroke-width="1.51"/><path d="M594,791L375,1148L698,1174Z" fill="#4b8ab3" stroke="#4b8ab3" stroke-width="1.51"/><path d="M277,634L300,930L594,791Z" fill="#58a7bc" stroke="#58a7bc" stroke-width="1.51"/><path d="M747,628L277,634L594,791Z" fill="#4babc1" stroke="#4babc1" stroke-width="1.51"/><path d="M300,930L375,1148L594,791Z" fill="#5695b5" stroke="#5695b5" stroke-width="1.51"/><path d="M747,628L450,143L277,634Z" fill="#58bcc1" stroke="#58bcc1" stroke-width="1.51"/><path d="M948,824L810,198L747,628Z" fill="#38a9c3" stroke="#38a9c3" stroke-width="1.51"/><path d="M948,824L1382,770L810,198Z" fill="#2a9bc1" stroke="#2a9bc1" stroke-width="1.51"/><path d="M1382,1134L1382,770L948,824Z" fill="#2373b2" stroke="#2373b2" stroke-width="1.51"/><path d="M1178,1379L1382,1134L948,824Z" fill="#2867ad" stroke="#2867ad" stroke-width="1.51"/><path d="M375,1148L811,1490L698,1174Z" fill="#4776ab" stroke="#4776ab" stroke-width="1.51"/><path d="M1178,1379L948,824L698,1174Z" fill="#3173b0" stroke="#3173b0" stroke-width="1.51"/><path d="M811,1490L1178,1379L698,1174Z" fill="#3166a1" stroke="#3166a1" stroke-width="1.51"/><path d="M810,198L450,143L747,628Z" fill="#59bdc2" stroke="#59bdc2" stroke-width="1.51"/><path d="M1559,1226L1462,1146L1382,1134Z" fill="#254fa1" stroke="#254fa1" stroke-width="1.51"/><path d="M1382,1134L1462,1146L1382,770Z" fill="#235ea8" stroke="#235ea8" stroke-width="1.51"/><path d="M1382,770L1398,98L810,198Z" fill="#449ebd" stroke="#449ebd" stroke-width="1.51"/><path d="M1462,1146L1543,743L1382,770Z" fill="#2466ac" stroke="#2466ac" stroke-width="1.51"/><path d="M375,1148L52,1486L811,1490Z" fill="#53769c" stroke="#53769c" stroke-width="1.51"/><path d="M300,930L-40,864L375,1148Z" fill="#6d9ab2" stroke="#6d9ab2" stroke-width="1.51"/><path d="M277,634L-40,864L300,930Z" fill="#72acb9" stroke="#72acb9" stroke-width="1.51"/><path d="M-33,501L-40,864L277,634Z" fill="#81bdbc" stroke="#81bdbc" stroke-width="1.51"/><path d="M450,143L44,382L277,634Z" fill="#78c8be" stroke="#78c8be" stroke-width="1.51"/><path d="M44,382L-33,501L277,634Z" fill="#83c7bd" stroke="#83c7bd" stroke-width="1.51"/><path d="M1462,1146L1916,994L1543,743Z" fill="#2655a4" stroke="#2655a4" stroke-width="1.51"/><path d="M1178,1379L1559,1226L1382,1134Z" fill="#274fa1" stroke="#274fa1" stroke-width="1.51"/><path d="M1543,743L1398,98L1382,770Z" fill="#3283b6" stroke="#3283b6" stroke-width="1.51"/><path d="M810,198L395,-220L450,143Z" fill="#87cebc" stroke="#87cebc" stroke-width="1.51"/><path d="M1398,98L1176,-80L810,198Z" fill="#6eb0bb" stroke="#6eb0bb" stroke-width="1.51"/><path d="M-40,864L52,1486L375,1148Z" fill="#778dab" stroke="#778dab" stroke-width="1.51"/><path d="M450,143L179,-18L44,382Z" fill="#8fd3ba" stroke="#8fd3ba" stroke-width="1.51"/><path d="M44,382L-272,197L-33,501Z" fill="#9cd5bb" stroke="#9cd5bb" stroke-width="1.51"/><path d="M395,-220L179,-18L450,143Z" fill="#9fd8b9" stroke="#9fd8b9" stroke-width="1.51"/><path d="M1176,-80L996,-247L810,198Z" fill="#82bebc" stroke="#82bebc" stroke-width="1.51"/><path d="M1218,-522L996,-247L1176,-80Z" fill="#96bdb9" stroke="#96bdb9" stroke-width="1.51"/><path d="M996,-247L395,-220L810,198Z" fill="#8fcfbd" stroke="#8fcfbd" stroke-width="1.51"/><path d="M2097,619L1786,348L1543,743Z" fill="#366baa" stroke="#366baa" stroke-width="1.51"/><path d="M1543,743L1786,348L1398,98Z" fill="#4383b2" stroke="#4383b2" stroke-width="1.51"/><path d="M1398,98L1530,-164L1176,-80Z" fill="#7fa4b3" stroke="#7fa4b3" stroke-width="1.51"/><path d="M-40,864L-267,1217L52,1486Z" fill="#8891a9" stroke="#8891a9" stroke-width="1.51"/><path d="M-440,795L-267,1217L-40,864Z" fill="#92a8b1" stroke="#92a8b1" stroke-width="1.51"/><path d="M-33,501L-440,795L-40,864Z" fill="#91bfbb" stroke="#91bfbb" stroke-width="1.51"/><path d="M179,-18L-76,71L44,382Z" fill="#a5dbb8" stroke="#a5dbb8" stroke-width="1.51"/><path d="M-100,-464L-76,71L179,-18Z" fill="#cbeab4" stroke="#cbeab4" stroke-width="1.51"/><path d="M1559,1226L1916,994L1462,1146Z" fill="#26489e" stroke="#26489e" stroke-width="1.51"/><path d="M-76,71L-272,197L44,382Z" fill="#a8dbb8" stroke="#a8dbb8" stroke-width="1.51"/><path d="M-272,197L-440,795L-33,501Z" fill="#9dd0bc" stroke="#9dd0bc" stroke-width="1.51"/><path d="M1786,348L1530,-164L1398,98Z" fill="#6a90ae" stroke="#6a90ae" stroke-width="1.51"/><path d="M-267,1217L-537,1487L52,1486Z" fill="#878696" stroke="#878696" stroke-width="1.51"/><path d="M-440,795L-478,1157L-267,1217Z" fill="#99a2af" stroke="#99a2af" stroke-width="1.51"/><path d="M1559,1226L1949,1385L1916,994Z" fill="#253896" stroke="#253896" stroke-width="1.51"/><path d="M1178,1379L1949,1385L1559,1226Z" fill="#223f92" stroke="#223f92" stroke-width="1.51"/><path d="M811,1490L1949,1385L1178,1379Z" fill="#1f4a90" stroke="#1f4a90" stroke-width="1.51"/><path d="M1916,994L2097,619L1543,743Z" fill="#285aa2" stroke="#285aa2" stroke-width="1.51"/><path d="M1947,-250L1601,-334L1530,-164Z" fill="#9094a9" stroke="#9094a9" stroke-width="1.51"/><path d="M1949,1385L2097,619L1916,994Z" fill="#1e428d" stroke="#1e428d" stroke-width="1.51"/><path d="M395,-220L241,-436L179,-18Z" fill="#b8e2b6" stroke="#b8e2b6" stroke-width="1.51"/><path d="M-567,-170L-518,159L-272,197Z" fill="#cbe9ba" stroke="#cbe9ba" stroke-width="1.51"/><path d="M509,-573L241,-436L395,-220Z" fill="#bae2ba" stroke="#bae2ba" stroke-width="1.51"/><path d="M509,-573L395,-220L996,-247Z" fill="#a9d9ba" stroke="#a9d9ba" stroke-width="1.51"/><path d="M1218,-522L951,-555L996,-247Z" fill="#a0c5c0" stroke="#a0c5c0" stroke-width="1.51"/><path d="M2097,619L2110,414L1786,348Z" fill="#356b9b" stroke="#356b9b" stroke-width="1.51"/><path d="M1530,-164L1218,-522L1176,-80Z" fill="#92aeb4" stroke="#92aeb4" stroke-width="1.51"/><path d="M1601,-334L1218,-522L1530,-164Z" fill="#97a6af" stroke="#97a6af" stroke-width="1.51"/><path d="M951,-555L509,-573L996,-247Z" fill="#a6d3c2" stroke="#a6d3c2" stroke-width="1.51"/><path d="M1947,-250L1530,-164L1786,348Z" fill="#7b89a9" stroke="#7b89a9" stroke-width="1.51"/><path d="M-440,795L-518,159L-478,1157Z" fill="#9fc5c1" stroke="#9fc5c1" stroke-width="1.51"/><path d="M-272,197L-518,159L-440,795Z" fill="#acdabd" stroke="#acdabd" stroke-width="1.51"/><path d="M-567,-170L-272,197L-76,71Z" fill="#c8e9b4" stroke="#c8e9b4" stroke-width="1.51"/><path d="M-478,1157L-537,1487L-267,1217Z" fill="#968fa6" stroke="#968fa6" stroke-width="1.51"/><path d="M52,1486L-537,1487L811,1490Z" fill="#697a8c" stroke="#697a8c" stroke-width="1.51"/><path d="M-518,159L-537,1487L-478,1157Z" fill="#9caeba" stroke="#9caeba" stroke-width="1.51"/><path d="M241,-436L-100,-464L179,-18Z" fill="#cdebb4" stroke="#cdebb4" stroke-width="1.51"/><path d="M509,-573L-100,-464L241,-436Z" fill="#cbeabe" stroke="#cbeabe" stroke-width="1.51"/><path d="M1601,-334L1838,-601L1218,-522Z" fill="#9ba1b5" stroke="#9ba1b5" stroke-width="1.51"/><path d="M2110,414L1947,-250L1786,348Z" fill="#58789c" stroke="#58789c" stroke-width="1.51"/><path d="M-518,159L-567,-170L-537,1487Z" fill="#a8d5c5" stroke="#a8d5c5" stroke-width="1.51"/><path d="M-100,-464L-567,-170L-76,71Z" fill="#dbf0b3" stroke="#dbf0b3" stroke-width="1.51"/><path d="M1947,-250L1838,-601L1601,-334Z" fill="#9791a8" stroke="#9791a8" stroke-width="1.51"/><path d="M1218,-522L1838,-601L951,-555Z" fill="#9eb2c1" stroke="#9eb2c1" stroke-width="1.51"/><path d="M951,-555L1838,-601L509,-573Z" fill="#a2c4c9" stroke="#a2c4c9" stroke-width="1.51"/><path d="M-567,-170L-621,-517L-537,1487Z" fill="#b8e1c4" stroke="#b8e1c4" stroke-width="1.51"/><path d="M-100,-464L-621,-517L-567,-170Z" fill="#f0f9b7" stroke="#f0f9b7" stroke-width="1.51"/><path d="M509,-573L-621,-517L-100,-464Z" fill="#e4f4bd" stroke="#e4f4bd" stroke-width="1.51"/></svg>